<svg id="Layer_1" data-name="Layer 1" xmlns="http://www.w3.org/2000/svg" xmlns:xlink="http://www.w3.org/1999/xlink" viewBox="0 0 15.87 15.61"><defs><style>.cls-1{fill:none;}.cls-2{clip-path:url(#clip-path);}.cls-3{fill:#fff;}</style><clipPath id="clip-path" transform="translate(-0.09 -0.18)"><rect class="cls-1" width="16" height="16"/></clipPath></defs><g class="cls-2"><path class="cls-3" d="M13.62.23a.42.42,0,0,0-.29,0,.4.4,0,0,0-.24.18L10.33,5.05l0,.08a3.1,3.1,0,0,0-.85.48A4.7,4.7,0,0,0,.7,8H.09l.05.43A7.73,7.73,0,0,0,4.25,14.3v1.49H10a1.32,1.32,0,0,0,1.33-1.33V14.3a7.73,7.73,0,0,0,4.11-5.89L15.52,8h-1.1a3.06,3.06,0,0,0-2-2.86L15.84,1.8a.4.4,0,0,0,0-.55.57.57,0,0,0-.13-.08l-.14,0a.4.4,0,0,0-.15,0,.57.57,0,0,0-.13.08l-3.84,3.7h-.17L13.76.76a.58.58,0,0,0,.05-.14.76.76,0,0,0,0-.15.61.61,0,0,0-.07-.14A.52.52,0,0,0,13.62.23ZM5.39,4.07A3.93,3.93,0,0,1,8.88,6.2a3.14,3.14,0,0,0-.5,1.12A3.06,3.06,0,0,0,2.33,8H1.47A3.92,3.92,0,0,1,5.39,4.07Zm0,2.5A1.42,1.42,0,0,0,4,8H3.11A2.29,2.29,0,0,1,7.68,8H6.81A1.42,1.42,0,0,0,5.39,6.57ZM6,8H4.74a.69.69,0,0,1,.2-.45.64.64,0,0,1,.45-.19.68.68,0,0,1,.46.19A.64.64,0,0,1,6,8Zm8.59.77a7,7,0,0,1-4.06,5.07H9.34v.77h1.22a.63.63,0,0,1-.19.31A.55.55,0,0,1,10,15H5v-.43H6.47v-.77H5A7,7,0,0,1,1,8.75ZM10.71,8a.64.64,0,0,1,.19-.45.66.66,0,0,1,.46-.19.64.64,0,0,1,.45.19A.69.69,0,0,1,12,8Zm.65-2.28A2.29,2.29,0,0,1,13.64,8h-.86A1.42,1.42,0,0,0,9.94,8H9.07A2.29,2.29,0,0,1,11.36,5.7Z" transform="translate(-0.09 -0.18)"/><path class="cls-3" d="M11.19,12.48a.37.37,0,0,0,.18,0,3.76,3.76,0,0,0,1.22-1,3.82,3.82,0,0,0,.7-1.43.76.76,0,0,0,0-.15.58.58,0,0,0-.05-.14.52.52,0,0,0-.1-.11L13,9.52h-.15a.24.24,0,0,0-.14.05.29.29,0,0,0-.12.1.38.38,0,0,0-.06.13A3.12,3.12,0,0,1,12,10.94a3,3,0,0,1-1,.82.37.37,0,0,0-.17.18.36.36,0,0,0,0,.25.34.34,0,0,0,.14.21A.32.32,0,0,0,11.19,12.48Z" transform="translate(-0.09 -0.18)"/><path class="cls-3" d="M10.26,13.09a.46.46,0,1,0-.46-.45A.46.46,0,0,0,10.26,13.09Z" transform="translate(-0.09 -0.18)"/></g></svg>